<?xml version="1.0" encoding="utf-8"?>
<!-- Generator: Adobe Illustrator 21.0.0, SVG Export Plug-In . SVG Version: 6.00 Build 0)  -->
<svg version="1.1" id="Layer_2" xmlns="http://www.w3.org/2000/svg" xmlns:xlink="http://www.w3.org/1999/xlink" x="0px" y="0px"
	 viewBox="0 0 250 250" style="enable-background:new 0 0 250 250;" xml:space="preserve">
<style type="text/css">
	.st0{fill:#C288EA;}
	.st1{fill:#7720BC;}
	.st2{fill:#4B1282;}
	.st3{fill:#F7E784;}
	.st4{opacity:0.5;}
	.st5{font-family:'LondrinaSolid-Black';}
	.st6{font-size:52.5704px;}
	.st7{font-size:38.052px;}
	.st8{fill:#E88C13;}
</style>
<g>
	<g>
		<g>
			<g>
				<path class="st0" d="M161.9,194.8L161.9,194.8c-17.8,0-34.4-6.3-48.1-18.1c-17.9-15.6-23.4-44.9-13.5-72.8
					c10-28.2,32.4-45.6,59.9-46.5c1,0,2-0.1,3-0.1c24.4,0,42.6,10.6,52.5,30.6c14.6,29.7,7.6,73.2-1.8,85.5
					C205.8,183.7,186.2,194.8,161.9,194.8z"/>
			</g>
		</g>
	</g>
	<g>
		<g>
			<g>
				<path class="st1" d="M169.5,80.6L169.5,80.6c-6.7-1.3-10.5-5.5-10.9-9c-0.3-2.6,1.1-4.7,3.9-5.8c2.5-1.2,6.2-1.2,10.2-0.4
					c6.7,1.3,13.8,5,14,9c0.1,2.4-2,4.3-6.2,5.5C176.9,80.9,173.1,81.3,169.5,80.6z"/>
			</g>
		</g>
		<g>
			<g>
				<path class="st1" d="M193.6,88.9L193.6,88.9c-2-2.6-2.8-5.4-1.9-7.5c0.5-1.2,1.4-1.9,2.9-2.2c4.7-0.8,8.8,2.2,11.1,5.3
					c2.2,2.9,2.9,6,2,7.9c-0.5,1-1.8,2.1-4.8,1.6C199.2,93.8,195.9,91.9,193.6,88.9z"/>
			</g>
		</g>
		<g>
			<g>
				<path class="st1" d="M178.5,95.1L178.5,95.1c-1.5-1.3-2.1-2.8-2-4.2c0.2-0.9,0.7-2.1,2.5-3.1c3.3-1.6,7.2,0.1,9.7,2.3
					c2.1,1.9,2.9,3.9,2.5,5.6c-0.3,0.8-1,2-3.3,2.3C184.5,98.3,180.9,97.2,178.5,95.1z"/>
			</g>
		</g>
	</g>
	<g>
		<g>
			<g>
				<path class="st2" d="M133.7,125.9L133.7,125.9c-0.6,2.9-2.1,5.1-3.9,5.7c-1.1,0.4-2.1,0.1-3.1-0.6c-3.2-2.7-3.6-7.3-2.9-10.7
					c0.6-3.2,2.4-5.5,4.2-5.9c0.9-0.2,2.4,0,3.9,2.2C133.7,119.4,134.3,122.7,133.7,125.9z"/>
			</g>
		</g>
		<g>
			<g>
				<path class="st2" d="M193.7,116.9c1.3-2.4,2.7-2.7,3.7-2.6c1.9,0.3,3.8,2.4,4.7,5.6c1,3.4,1.1,7.9-1.9,10.9
					c-0.9,0.9-1.9,1.2-3.1,0.9c-1.9-0.4-3.6-2.6-4.4-5.3l0,0C191.7,123.2,192,119.8,193.7,116.9z"/>
			</g>
		</g>
	</g>
	<g>
		<path class="st0" d="M222.6,117.4c0.7-0.1,15.3-3.8,23.5,0c3.9,1.9,1,9.7-1.1,14.1c-3.7,7.8-11.1,18.9-21,26.7
			c-11.2,8.9-22.9,11.1-32.4,6.3C188.4,163,221.9,117.7,222.6,117.4z"/>
	</g>
	<g>
		<path class="st0" d="M127.4,166.6c-9.4,4.8-21.1,2.6-32.4-6.3c-9.9-7.9-17.3-19-21-26.7c-2.1-4.4-5.1-12.2-1.1-14.1
			c8.2-3.9,22.8-0.1,23.5,0C97.2,119.7,130.6,165,127.4,166.6z"/>
	</g>
	<g>
		<path class="st2" d="M206.4,153c0,0-2.6-8.7-15.6-9.2c-3.3-0.1-12.8-0.9-13.2-0.9c-0.2,0-12.4-0.2-12.4-0.2s-12.2,0.1-12.6,0.2
			c-0.4,0-13.3,0.3-13.3,0.3l-11.5,1.6c-0.2,0.3-6.4,2.4-7.6,3.8c-2.3,2.8-4,8.6-4,9.2c0.8,3.6-1.2,7.1,10.5,13.1
			c0,0,14.4,2.5,14.8,2.5s11.3,1.2,11.3,1.2l24.6,0.3l22.6-3.6C210.1,164.3,206.5,155.9,206.4,153z"/>
		<g>
			<g>
				<g>
					<path class="st3" d="M177.5,175.9c-0.4,0-27-0.6-27.3-0.6c-0.4,0-20.3-2.4-19.9-2.7c0,0,10.7-10.3,11.1-10.3
						c0.4,0,11.6,10.5,11.6,10.5s11.3-8.7,11.7-8.7s12.6,10.3,12.6,10.3s9.5-10.7,9.9-10.7c0.4,0,12.9,8.6,12.9,8.6
						C200.6,172.7,177.6,175.9,177.5,175.9z"/>
				</g>
			</g>
		</g>
		<g>
			<g>
				<path class="st3" d="M197,157.4l-8.3-10.9c0,0-10.7,10.9-11.1,10.9c-0.2,0-12.8-12.9-12.8-12.9s-10.4,12.9-10.8,12.9
					c-0.4,0-14.8-11.9-14.8-11.9l-8.1,13.3c0,0-15.6-4.7-13.8-6.6c7.7-8,22.3-9,22.5-8.9c0,0,25.9-1.3,26.1-1c0,0,24,1.9,24.4,2
					c16.6,1.5,16.2,9.2,15.7,9.5C206,153.8,197.8,157.8,197,157.4z"/>
			</g>
		</g>
		<g>
			<g>
				<path class="st0" d="M166.3,178.1L166.3,178.1c-18.4,0-33.8-4-41.5-6.9c-7.4-2.8-11.1-8.2-10.2-14.3c1-6.3,6.7-11.4,14.2-12.9
					c6.6-1.3,21-2.1,35.9-2.1c9,0,30.6,0.3,36.7,3.6c4.7,2.5,7.4,8.1,6.7,14.3c-0.5,6-3.8,10.7-8.7,12.6
					C193.5,174.9,178.5,178.1,166.3,178.1z M164.8,145.9c-14.6,0-29.1-1.4-35.3-0.2c-6.6,1.3-11.5,5.8-12.4,11.4
					c-0.9,5.4,2.5,10.1,8.9,12.6c7.1,2.7,22.5,5.6,40.3,5.6l0,0c14.9,0,27.4-2.3,32.1-4.2c4.3-1.8,7.1-6,7.5-11.2
					c0.5-5.6-1.8-10.7-5.8-12.9C196.3,144.9,182.9,145.9,164.8,145.9z"/>
			</g>
		</g>
	</g>
	<g class="st4">
		<g>
			<text transform="matrix(1 0 0 1 6.1133 102.3984)" class="st5 st6">HOjE</text>
		</g>
		<g>
			<text transform="matrix(1 0 0 1 4.917 139.9385)" class="st5 st7">tem</text>
		</g>
		<g>
			<text transform="matrix(1 0 0 1 3.8384 190.6973)" class="st5 st6">MeSA</text>
		</g>
	</g>
	<g>
		<text transform="matrix(1 0 0 1 4.1113 99.3955)" class="st8 st5 st6">HOjE</text>
	</g>
	<g>
		<text transform="matrix(1 0 0 1 2.915 136.9355)" class="st8 st5 st7">tem</text>
	</g>
	<g>
		<text transform="matrix(1 0 0 1 1.8364 187.6943)" class="st8 st5 st6">MeSA</text>
	</g>
</g>
</svg>
